<svg width="24" height="23" viewBox="0 0 24 23" fill="none" xmlns="http://www.w3.org/2000/svg">
<path d="M17.436 5.82377C15.7663 4.61467 13.7363 3.71255 11.5469 3.71255C5.85144 3.71255 1.23438 9.81739 1.23438 11.5501C1.23438 12.6528 3.10467 15.5267 5.93293 17.4705" stroke="#79807C" stroke-width="2.475" stroke-linejoin="round"/>
<path d="M20.2873 8.5387C21.2837 9.78018 21.8599 10.9379 21.8599 11.55C21.8599 13.2827 17.2429 19.3875 11.5474 19.3875C10.8243 19.3875 10.1186 19.2891 9.4375 19.1138" stroke="#79807C" stroke-width="2.475" stroke-linecap="round" stroke-linejoin="round"/>
<path d="M11.6835 7.21881C9.2177 7.21881 7.21875 9.21776 7.21875 11.6836C7.21875 13.0685 7.84931 14.3061 8.83899 15.1251L15.1049 8.81489C14.2859 7.83912 13.0571 7.21881 11.6835 7.21881Z" fill="#79807C" stroke="#79807C" stroke-width="2.475" stroke-linecap="round" stroke-linejoin="round"/>
<path d="M21.0344 1.23755C14.3395 9.81347 9.99412 14.1125 1.23438 21.0375" stroke="#79807C" stroke-width="2.475" stroke-linecap="round" stroke-linejoin="round"/>
</svg>
