<svg width="1920" height="1080" viewBox="0 0 1920 1080" fill="none" xmlns="http://www.w3.org/2000/svg">
<g clip-path="url(#clip0_215_3)">
<rect width="1920" height="1080" fill="#E6F2EF"/>
<g opacity="0.4">
<path d="M1699.05 623.418L1698.47 632.752C1698.47 632.752 1706.11 661.069 1732.01 674.404C1757.91 687.738 1772.82 694.013 1772.82 694.013L1817.55 662.638L1850.52 628.909L1846.39 603.733L1808.14 586.552L1784.59 566.158L1761.05 573.218L1699.05 623.418Z" fill="white"/>
<path d="M1667.65 705.779L1678.31 694.763L1801.07 760.686L1831.68 734.017L1869.35 702.642H1898.39L1921.15 718.329L1926.75 721.657L1926.64 941.095L1819.64 916.293L1780.66 872.853L1785.6 829.94L1777.52 807.749L1722.59 755.98L1667.65 705.779Z" fill="white"/>
<path d="M1326.95 870.245C1359.52 904.843 1391.15 938.446 1423.21 972.499C1434.78 970.593 1446.9 968.502 1460.26 972.4C1489.62 1007.52 1520.06 1043.94 1550.51 1080.38C1540.72 1084.15 1536.97 1083.33 1530.61 1075.78C1518.76 1061.71 1506.54 1047.92 1495.28 1033.39C1484.23 1019.14 1472.14 1005.7 1461.88 990.834C1459.32 987.127 1457.05 983.226 1454.24 978.784C1442.68 981.652 1431 984.548 1417.92 987.793C1415.18 984.89 1411.33 981.058 1407.76 976.981C1396.49 964.111 1385.11 951.327 1374.18 938.176C1362.59 924.234 1348.63 912.405 1338.38 897.241C1335.16 892.468 1330.3 888.796 1326.21 884.603C1321.63 879.915 1317.7 874.853 1316.7 867.665C1318.08 866.208 1319.47 864.385 1321.19 862.965C1338.31 848.873 1355.54 834.926 1372.61 820.782C1389.82 806.527 1406.78 791.981 1424.03 777.775C1440.52 764.186 1457.3 750.935 1473.84 737.406C1480.56 731.908 1486.56 725.416 1493.67 720.519C1509.94 709.319 1524.24 695.705 1540 683.884C1552.43 674.554 1564.29 664.464 1576.45 654.759C1581.99 650.332 1587.68 646.083 1593.18 641.605C1594.36 640.646 1594.97 639.01 1595.93 637.751C1596.84 636.542 1597.71 634.616 1598.88 634.382C1609.04 632.346 1614.86 623.881 1622.55 618.366C1639.66 606.099 1655.99 592.754 1672.67 579.897C1690.32 566.296 1707.86 552.561 1725.72 539.235C1743.83 525.716 1762.28 512.648 1780.55 499.339C1789.97 492.478 1799.26 485.439 1808.71 478.633C1822.33 468.834 1835.98 459.076 1849.76 449.506C1855.12 445.779 1857.42 445.736 1862.48 450.755C1868.14 456.351 1873.04 462.74 1877.96 469.025C1890.03 484.445 1901.92 500.004 1913.89 515.505C1916.62 519.037 1919.22 522.679 1922.12 526.061C1928.83 533.878 1926.79 542.793 1926.03 553.325C1900.64 522.637 1876.98 492.683 1857.62 458.88C1848.71 462.084 1841.76 469.058 1833.84 474.377C1824.49 480.657 1815.84 487.961 1806.78 494.678C1795.92 502.726 1784.89 510.542 1774.05 518.607C1764.53 525.69 1755.14 532.952 1745.73 540.183C1734.68 548.67 1723.71 557.243 1712.65 565.715C1701.06 574.599 1689.36 583.332 1677.81 592.266C1659.07 606.76 1640.41 621.35 1621.74 635.934C1618.98 638.087 1616.37 640.427 1613.1 643.183C1616.35 647.498 1619.13 651.83 1622.53 655.595C1635.73 670.192 1645.48 687.666 1660.09 701.541C1662.05 698.187 1663.46 695.433 1665.18 692.89C1670.22 685.452 1676.63 683.07 1684.9 685.227C1691.84 687.038 1698.42 689.677 1704.25 693.849C1721.89 706.466 1741.2 716.29 1759.83 727.257C1770.7 733.655 1781.13 740.798 1791.82 747.503C1800.82 753.149 1801.46 753.229 1809.55 746.192C1818.05 738.809 1826.21 731.038 1835.21 722.8C1828.84 715.826 1822.65 709.622 1817.16 702.854C1811.7 696.132 1806.94 688.845 1801.41 681.148C1795.27 686.665 1790.15 691.772 1784.46 696.136C1782.09 697.947 1778.5 699.012 1775.48 698.971C1761.15 698.775 1748 693.846 1736.58 685.752C1720.91 674.656 1707.74 660.697 1695.72 645.725C1694.1 643.706 1692.74 641.457 1691.45 639.204C1688.75 634.482 1688.83 634.253 1692.74 627.564C1694.71 629.308 1697.05 630.71 1698.47 632.752C1709.03 647.936 1723.18 659.69 1736.78 671.778C1745.44 679.469 1756.43 684.249 1767.98 686.85C1773.51 688.095 1778.35 687.625 1782.76 682.686C1789.81 674.795 1796.9 666.763 1806.21 661.256C1806.75 660.939 1807.3 660.422 1807.53 659.866C1811.34 650.66 1814.98 641.385 1818.91 632.232C1820.45 628.652 1819.02 625.337 1818.78 621.925C1817.99 610.755 1818.81 609.638 1830.51 608.115C1823.4 604.47 1816.85 601.307 1810.5 597.805C1804.13 594.294 1798.17 590.149 1792.57 585.471C1787.16 580.956 1782.7 575.58 1778.35 569.134C1767.53 577.001 1757.36 584.222 1747.38 591.699C1736.26 600.032 1725.33 608.618 1714.29 617.052C1710.95 619.602 1707.61 622.187 1704.08 624.442C1699.47 627.381 1696.61 627.336 1694.46 624.793C1692.35 622.298 1693.39 619.528 1697.67 615.935C1702.12 612.206 1706.42 608.298 1710.94 604.67C1721.28 596.378 1731.67 588.151 1742.12 580.009C1751.23 572.918 1760.59 566.148 1769.58 558.92C1776.79 553.128 1783.42 553.1 1790 559.523C1795.56 564.952 1801.11 570.385 1806.8 575.946C1819.55 570.096 1828.68 560.427 1838.69 551.9C1844.57 546.887 1850.68 542.124 1856.88 537.492C1858.9 535.977 1861.44 535.059 1863.85 534.163C1872.76 530.856 1877.37 531.922 1883.13 539.495C1891.9 551.011 1900.31 562.803 1908.87 574.477C1913.98 581.442 1919.16 588.353 1924.14 595.408C1925.35 597.117 1926.52 599.276 1926.6 601.272C1926.89 608.709 1926.72 616.165 1926.72 623.802C1922.64 625.192 1919.06 626.416 1915.22 627.726C1914.93 634.274 1914.64 640.755 1914.32 648.12C1918.62 645.811 1921.88 644.056 1925.7 642.007C1926.14 643.758 1926.49 644.897 1926.7 646.064C1928.35 655.473 1924.71 661.297 1916.31 666.48C1905.45 673.183 1895.95 682.089 1884.89 690.812C1897.45 690.613 1906.16 696.845 1915.7 701.549C1924.83 706.051 1928.36 712.024 1926.75 721.657C1926.44 723.543 1926.43 725.478 1926.2 728.333C1917.13 719.697 1907.38 713.665 1897.01 708.327C1889.14 704.272 1882.21 704.664 1875.05 709.252C1872.94 710.602 1870.7 711.737 1867.71 713.424C1873.47 716.072 1881.47 711.49 1883.58 720.028C1881.65 723.412 1878.78 724.452 1875.31 724.427C1872.05 724.403 1868.71 724.944 1865.56 724.393C1854.5 722.465 1846.98 727.714 1839.7 736.845C1844.57 737.992 1848.72 739.2 1852.96 739.917C1859.74 741.063 1859.77 740.925 1859.27 748.688C1854.21 751.867 1848.8 750.68 1843.48 749.569C1840.97 749.047 1838.61 747.889 1836.14 747.169C1830.86 745.628 1826.37 746.371 1822.35 750.753C1819.57 753.794 1815.79 755.935 1811.94 758.875C1815.54 760.529 1818.91 762.078 1822.29 763.624C1822.87 763.889 1823.7 763.982 1823.99 764.43C1825.4 766.641 1828.51 767.845 1826.93 771.729C1825.46 775.364 1823.04 776.209 1820.09 775.231C1813.68 773.107 1807.22 770.904 1801.19 767.917C1793.12 763.921 1785.23 759.476 1777.63 754.651C1758.09 742.248 1737.05 732.37 1718.02 719.141C1711.26 714.447 1704.63 709.547 1697.64 705.228C1691.48 701.422 1684.9 698.293 1678.31 694.762C1675.93 696.769 1674.01 698.381 1672.03 700.05C1672.61 701.295 1672.81 702.325 1673.43 702.952C1682.85 712.576 1692.69 721.829 1701.72 731.81C1713.68 745.031 1727.57 755.973 1741.38 767.037C1751.43 775.083 1761.62 782.952 1771.81 790.817C1778.04 795.623 1783 801.339 1787.13 808.129C1793.02 817.789 1800.04 826.752 1806.24 836.232C1812.04 845.106 1817.27 854.35 1823.02 863.262C1826.14 868.11 1829.82 872.607 1833.83 878.062C1832.99 879.215 1831.94 882.094 1830.53 882.282C1827.89 882.634 1824.37 882.253 1822.43 880.684C1818.7 877.671 1815.33 873.936 1812.66 869.934C1804.22 857.28 1796.19 844.36 1787.96 831.567C1787.66 831.09 1786.97 830.86 1785.6 829.94C1785.28 831.959 1784.91 833.542 1784.8 835.144C1784.38 840.97 1784.39 846.847 1783.62 852.622C1782.29 862.538 1787.02 869.753 1792.72 877.157C1807.12 895.844 1826.79 905.835 1848.63 912.68C1859.57 916.109 1870.31 920.234 1881.34 923.305C1892.8 926.495 1904.53 928.704 1916.1 931.535C1919.52 932.374 1922.79 933.867 1926.31 935.128V946.05C1902.83 940.836 1879.77 935.713 1856.95 930.645C1875.99 949.892 1895.21 969.32 1914.52 988.839C1917.59 986.443 1921.36 983.509 1926.16 979.761V1001.95C1906.08 1018.7 1886.03 1035.49 1865.9 1052.17C1854.58 1061.55 1843.12 1070.77 1831.7 1080.03C1830.72 1080.83 1829.59 1081.96 1828.49 1082C1823.44 1082.17 1818.29 1083.02 1812.06 1080.94C1843.94 1052.52 1875.05 1024.77 1906.63 996.619C1886.62 976.131 1866.81 955.854 1847.02 935.564C1845.88 934.401 1844.21 933.289 1843.88 931.895C1842.16 924.67 1835.77 923.38 1830.36 920.863C1826.84 919.226 1823.23 917.783 1819.65 916.293C1801 908.545 1788.49 893.738 1776.71 878.358C1772.79 873.24 1771 866.621 1771.74 859.899C1772.33 854.566 1770.47 850.725 1766.53 847.141C1753.59 835.367 1743.25 821.32 1732.33 807.756C1727.72 802.019 1722.05 797.136 1717.02 791.721C1713.72 788.164 1710.65 784.379 1707.54 780.646C1691.41 761.276 1674.83 742.246 1659.29 722.416C1641.55 699.793 1624.73 676.449 1607.49 653.436C1606.72 652.408 1605.72 651.553 1604.4 650.17C1602.28 651.544 1600.08 652.736 1598.15 654.265C1576.47 671.417 1554.77 688.541 1533.21 705.835C1515.52 720.027 1498.03 734.481 1480.39 748.741C1459.78 765.399 1439.21 782.11 1418.41 798.527C1407.08 807.469 1394.73 815.187 1383.88 824.645C1370.24 836.534 1355.98 847.573 1341.74 858.684C1336.93 862.443 1332.11 866.206 1326.95 870.245ZM1832.66 657.883C1824.56 663.435 1816.44 668.958 1809.28 675.028C1815.03 681.697 1819.85 688.087 1825.5 693.63C1831.07 699.095 1835.7 705.917 1843.34 708.869C1860.54 690.197 1879.84 674.729 1899.24 660.047C1899.72 656.35 1899.41 652.625 1900.76 649.645C1904.34 641.7 1905.09 634.071 1901.64 625.846C1899.69 621.193 1901.01 618.99 1905.89 616.75C1908.49 615.56 1911.33 614.908 1914.08 614.064C1916.05 613.459 1918.05 612.939 1920.08 612.37C1911.47 600.373 1903.14 588.915 1894.96 577.345C1886.9 565.928 1879 554.397 1871 542.874C1861.78 548.83 1853.77 554.513 1846.42 561.55C1837.88 569.725 1827.47 575.95 1818.08 582.861C1826.38 587.149 1834.94 591.573 1843.38 595.934C1844.7 594.709 1846.54 593.335 1847.97 591.62C1861.44 575.463 1882.27 581.382 1890.78 594.95C1899.79 609.312 1898.65 625.138 1881.59 637.055C1876.92 640.315 1872.04 643.648 1866.08 644.297C1863.2 644.611 1860.74 643.483 1860.13 640.526C1859.52 637.622 1861.06 635.711 1863.98 634.675C1867.59 633.396 1871.53 632.378 1874.52 630.164C1884.14 623.035 1888.79 613.033 1881.73 601.505C1877.11 593.962 1868.1 590.934 1860.24 594.892C1855.46 597.301 1851.15 600.651 1846.39 603.732C1855.94 608.935 1855.56 619.202 1859.91 626.746C1860.36 627.529 1859.64 629.297 1859.01 630.333C1857.36 633.053 1855.81 635.983 1853.59 638.184C1846.7 644.982 1839.53 651.478 1832.46 658.092L1832.66 657.883ZM1770.44 834.443C1771.29 834.013 1772.14 833.584 1772.99 833.154C1773.58 826.554 1773.57 820.113 1772.62 813.327C1771.71 806.858 1769.46 802.677 1763.92 799.561C1759.44 797.042 1755.14 794.113 1751.12 790.911C1736.72 779.448 1722.49 767.786 1708.16 756.245C1707.81 755.958 1707.02 756.209 1705.83 756.209C1706.41 757.427 1706.7 758.549 1707.36 759.366C1725.78 781.956 1747.2 802.014 1763.74 826.196C1765.73 829.11 1768.19 831.702 1770.44 834.443ZM1830.54 622.047C1830.54 625.351 1830.75 628.565 1830.48 631.739C1830.22 634.835 1829.47 637.89 1828.74 642.124C1835.16 635.993 1840.46 630.939 1845.58 626.061C1843.95 623.659 1842.53 621.553 1841.1 619.435C1837.78 620.257 1834.47 621.076 1830.54 622.047Z" fill="#395659"/>
<path d="M1666.98 325.512C1674.84 323.517 1682.82 324.141 1690.91 324.679C1697.67 325.13 1704.28 325.378 1709.66 329.997C1712.32 332.288 1715.37 334.658 1716.89 337.674C1722.83 349.521 1726.45 362.113 1725.94 375.505C1725.31 392.057 1724.65 408.592 1722.03 425.029C1720.49 434.692 1719.86 444.595 1719.87 454.388C1719.88 472.684 1708.81 480.664 1695.4 482.362C1692.82 482.688 1690.21 482.718 1686.71 482.943C1686.47 488.353 1686.05 493.741 1686.02 499.131C1685.99 506.546 1684.32 511.898 1675.86 514.524C1669.94 516.363 1665.04 521.386 1659.56 524.773C1656.23 526.825 1652.82 527.019 1648.6 526.732C1642.21 526.297 1635.59 528.495 1629.12 529.816C1618.14 532.059 1607.27 535.903 1596.22 536.497C1581.27 537.299 1566.15 536.13 1551.4 532.747C1544.51 531.17 1537.67 529.832 1531.02 526.97C1518.85 521.735 1510.83 513.048 1505.42 501.333C1499.27 488.012 1499.01 473.637 1498.02 459.491C1496.78 441.725 1496.11 423.898 1495.85 406.088C1495.57 386.449 1495.08 366.762 1501.71 347.698C1504.76 338.916 1509.52 331.438 1515.52 324.558C1515.94 324.076 1516.18 323.337 1516.7 323.049C1526.26 317.67 1535.62 311.872 1545.51 307.173C1551.83 304.168 1559 302.978 1565.67 300.665C1579.83 295.763 1594.29 296.023 1608.88 297.725C1609.8 297.833 1610.8 298.217 1611.65 297.996C1623.01 295.002 1632.24 299.485 1641.4 305.616C1647.76 309.873 1654.56 313.444 1660.05 318.912C1662.29 321.146 1664.63 323.282 1666.98 325.512ZM1510.44 357.823C1509.84 364.104 1509.09 369.237 1508.91 374.39C1508.55 384.248 1507.53 394.223 1508.58 403.958C1510.41 420.982 1511.8 437.988 1511.91 455.098C1512.02 471.047 1514.48 486.462 1521.64 500.924C1525.01 507.726 1530.13 512.251 1537.6 513.93C1546.37 515.899 1554.67 519.376 1563.78 520.435C1574.49 521.68 1585.11 522.67 1595.84 521.622C1603.56 520.868 1611.3 520.06 1618.94 518.778C1626.71 517.476 1634.31 514.744 1642.1 514.181C1648.14 513.745 1652.56 511.105 1656.85 507.777C1661.2 504.408 1665.27 500.813 1671.21 501.856C1671.62 500.14 1672.01 499.225 1672.03 498.299C1672.59 478.251 1673.06 458.201 1673.65 438.154C1673.91 429.178 1674.55 420.212 1674.77 411.235C1675.02 401.596 1675.05 391.949 1675 382.307C1674.99 380.784 1674.08 379.265 1673.35 377.002C1671.61 379.513 1670.59 381.178 1669.39 382.705C1662.73 391.172 1654.78 398.188 1644.75 402.29C1636.39 405.708 1627.88 408.968 1619.16 411.242C1607.76 414.215 1596.19 415.139 1584.31 412.593C1571.56 409.861 1559.78 404.703 1547.83 399.938C1534.22 394.513 1523.92 384.903 1516.32 372.576C1513.83 368.532 1512.7 363.647 1510.44 357.823ZM1673.26 333.251C1676.12 341.225 1678.36 347.79 1680.87 354.253C1681.96 357.067 1681.99 360.781 1686.27 361.399C1695.7 362.761 1698.81 369.78 1699.7 377.802C1701.07 390.191 1702.26 402.654 1702.46 415.103C1702.6 423.696 1701.06 432.332 1700.05 440.925C1699.2 448.221 1695.3 452.716 1687.62 453.382C1686.7 453.461 1685.82 453.952 1684.81 454.289V468.81C1686.67 468.608 1688.22 468.503 1689.75 468.264C1699.63 466.718 1702.96 462.949 1703.31 453.085C1703.39 450.825 1703.59 448.56 1703.89 446.32C1705.61 433.683 1708.71 421.057 1708.76 408.418C1708.8 396.387 1711.44 384.761 1711.73 372.831C1711.99 362.353 1710.26 352.667 1705.45 343.374C1703.36 339.317 1700.65 336.614 1695.99 336.068C1688.68 335.212 1681.39 334.264 1673.26 333.251ZM1524.1 355.867C1526.69 352.367 1528.7 350.227 1530.04 347.726C1534.09 340.159 1540.66 335.439 1548.18 332.194C1560.32 326.95 1572.76 322.975 1586.21 321.669C1597.17 320.604 1607.68 321.015 1618.09 324.119C1623 325.585 1627.51 328.702 1632.48 329.616C1637.47 330.537 1641.53 332.334 1645.51 335.339C1648.39 337.512 1651.3 340.799 1656.54 338.967C1654.15 335.837 1652.3 332.798 1649.84 330.368C1646.64 327.195 1642.78 324.687 1639.51 321.573C1629.68 312.215 1617.3 308.524 1604.49 306.912C1582.12 304.098 1561.69 311.269 1542.76 322.266C1530.89 329.162 1524.22 340.113 1524.1 355.867ZM1688.92 409.154C1688.23 409.116 1687.54 409.077 1686.86 409.039V434.606C1688.1 426.152 1690.83 417.779 1688.92 409.154ZM1685.78 370.759C1686.2 378.831 1686.5 384.579 1686.8 390.327C1687.54 390.283 1688.29 390.239 1689.03 390.195C1690.28 384.283 1690.36 378.427 1685.78 370.759ZM1688.23 405.405L1689.13 405.393V395.51C1688.83 395.516 1688.53 395.522 1688.23 395.527V405.405Z" fill="#395659"/>
<path d="M1552.68 1046.85C1555.17 1054.46 1561.48 1059.1 1566.55 1064.71C1571.26 1069.91 1575.89 1075.18 1581.19 1081.13C1572.46 1083.26 1566.57 1082.44 1561 1075.99C1552.77 1066.46 1544.19 1057.36 1537.12 1046.78C1531.22 1037.97 1523.59 1030.32 1516.82 1022.09C1506.14 1009.09 1495.76 995.824 1484.81 983.05C1476.65 973.526 1468.84 963.729 1459.82 954.864C1444.45 939.756 1429.86 923.834 1415.22 908.004C1407.16 899.283 1399.51 890.165 1392.01 880.954C1390.58 879.207 1390.19 876.161 1390.3 873.755C1390.42 870.921 1391.06 867.837 1392.42 865.384C1395.13 860.501 1394.39 856.225 1391.04 852.434C1399.23 846.647 1407.25 841.697 1414.42 835.73C1425.15 826.811 1435.42 817.325 1445.62 807.795C1452.66 801.212 1459.1 793.985 1466.08 787.331C1487.52 766.885 1509.09 746.565 1530.64 726.219C1539.32 718.017 1547.72 709.468 1556.86 701.806C1567.74 692.693 1579.2 684.271 1590.57 675.767C1593.12 673.865 1596.23 672.538 1599.27 671.527C1604.88 669.665 1608.16 671.678 1607.95 677.717C1607.82 681.217 1609.08 683.369 1611.18 685.164C1620.41 693.055 1626.6 703.23 1633.25 713.143C1638.97 721.665 1645.29 729.787 1651.47 737.991C1657.28 745.691 1664 752.594 1669.19 760.888C1674.1 768.741 1680.8 775.469 1686.62 782.763C1691.46 788.825 1696.01 795.136 1700.99 801.074C1707.34 808.634 1714.15 815.813 1720.51 823.372C1726.75 830.806 1732.62 838.558 1738.77 846.077C1743.26 851.563 1747.98 856.858 1752.5 862.311C1758.05 868.992 1763.34 875.892 1769.05 882.436C1776.64 891.148 1784.52 899.607 1792.28 908.176C1800.26 916.986 1808.14 925.887 1816.23 934.584C1825.41 944.44 1835.07 953.86 1843.98 963.946C1851.45 972.404 1858.03 981.639 1865.22 990.354C1869.78 995.872 1866.7 1002.23 1867.38 1008.12C1867.66 1010.55 1864.56 1013.67 1862.47 1016C1853.04 1026.51 1843.41 1036.85 1833.87 1047.26C1832.99 1048.22 1832.29 1049.35 1831.34 1050.22C1822.84 1057.93 1813.4 1064.83 1806.03 1073.49C1798.24 1082.67 1789.24 1083.21 1778.24 1081.58C1785.48 1074.6 1792.45 1068.08 1799.21 1061.34C1809.42 1051.16 1819.6 1040.94 1829.55 1030.5C1832.62 1027.27 1834.75 1023.16 1837.57 1019.65C1843.18 1012.65 1848.95 1005.79 1854.87 998.618C1848.54 991.545 1841.8 984.248 1835.33 976.72C1821.33 960.432 1805.89 945.577 1790.57 930.561C1782.12 922.277 1774.59 913.045 1766.76 904.138C1761.9 898.601 1757.2 892.913 1752.51 887.223C1738.61 870.347 1724.6 853.559 1710.92 836.506C1697.57 819.87 1684.4 803.087 1671.49 786.119C1657.44 767.664 1643.68 748.987 1630 730.259C1626.21 725.069 1622.38 719.671 1619.9 713.808C1615.22 702.752 1606.06 695.304 1599.57 685.634C1585.59 697.518 1571.99 708.979 1558.5 720.569C1544.35 732.729 1530.14 744.841 1516.26 757.302C1506.19 766.34 1496.66 775.971 1486.78 785.227C1481.45 790.221 1475.86 794.941 1470.46 799.86C1463.03 806.63 1455.54 813.346 1448.29 820.31C1436.38 831.755 1423.39 841.844 1409.91 851.348C1404.93 854.86 1404.6 856.612 1408.69 861.221C1415.3 868.668 1422.96 875.382 1428.51 883.533C1440.26 900.772 1455.78 914.742 1468.3 931.275C1474.29 939.172 1481.39 946.226 1488 953.646C1501.07 968.309 1514.08 983.02 1527.24 997.601C1538.69 1010.29 1550.28 1022.86 1561.87 1035.42C1567.97 1042.05 1574.25 1048.52 1580.39 1055.11C1588.44 1063.74 1596.44 1072.43 1605.1 1081.79H1586.9C1577.17 1071.03 1567.05 1059.74 1556.78 1048.59C1555.86 1047.6 1553.99 1047.48 1552.56 1046.95C1550.59 1043.75 1548.62 1040.55 1546.65 1037.35C1546.05 1037.78 1545.46 1038.21 1544.87 1038.64C1546.6 1042.06 1549.5 1044.57 1552.68 1046.85ZM1400.96 868.853C1399.54 873.322 1399.93 875.75 1402.2 878.286C1409.92 886.918 1417.19 895.952 1425.06 904.435C1427.6 907.171 1429.85 910.994 1436.36 912.382C1422.17 898.456 1415.25 881.47 1400.96 868.853Z" fill="#395659"/>
<path d="M642.862 1092.76C637.485 1093.38 630.269 1094.48 623.011 1094.99C616.857 1095.43 610.603 1095.73 604.488 1095.13C596.224 1094.32 588.074 1092.41 579.83 1091.31C574.604 1090.62 569.294 1090.55 564.022 1090.19C562.521 1090.08 561.011 1090 559.526 1089.77C555.085 1089.08 550.679 1088.02 546.214 1087.66C536.624 1086.88 527.001 1086.53 517.402 1085.85C513.045 1085.54 511.288 1083.54 511.774 1079.84C512.907 1071.22 513.96 1062.58 515.318 1053.99C516.971 1043.53 519.192 1033.16 520.629 1022.68C521.84 1013.85 522.125 1004.89 523.12 996.022C523.824 989.744 524.647 983.433 526.102 977.298C527.976 969.397 529.721 968.099 537.458 968.714C539.812 968.901 540.019 968.558 541.36 966.762C543.014 964.547 546.434 962.881 549.305 962.473C560.871 960.829 572.518 959.753 584.137 958.485C595.666 957.226 607.178 955.764 618.733 954.825C625.859 954.245 633.05 954.417 640.212 954.361C648.227 954.298 656.284 954.842 664.241 954.165C668.307 953.819 670.818 954.893 671.755 958.287C673.458 964.451 674.766 970.755 675.753 977.076C676.881 984.309 677.549 991.616 678.287 998.905C678.857 1004.53 677.836 1010.17 673.967 1014.18C669.718 1018.57 669.122 1023.82 668.279 1029.15C665.579 1046.25 663.117 1063.39 660.305 1080.47C659.857 1083.19 658.345 1085.86 656.854 1088.26C654.14 1092.63 650.525 1095.56 642.862 1092.76ZM580 1018.92C585.453 1018.18 591.365 1017.4 597.271 1016.57C610.031 1014.79 622.751 1012.64 635.56 1011.34C642.59 1010.63 649.476 1010.11 656.224 1007.65C663.483 1005 663.638 1005.05 663.039 996.825C662.554 990.153 662.55 983.446 662.291 976.756C662.143 972.955 661.911 969.157 661.739 965.774C660.383 965.174 659.8 964.677 659.24 964.703C644.23 965.384 629.222 966.118 614.215 966.854C613.898 966.87 613.594 967.071 613.275 967.105C603.114 968.194 592.877 968.819 582.814 970.492C574.096 971.941 564.275 968.246 556.697 975.735C556.132 976.293 554.269 975.63 553.034 975.402C551.245 975.071 549.479 974.62 546.975 974.056C558.281 989.416 568.998 1003.98 580 1018.92ZM656.479 1022.69C648.621 1023.22 642.257 1023.71 635.884 1024.06C619.554 1024.94 603.351 1027.1 587.167 1029.25C577.885 1030.48 576.751 1031.55 575.974 1040.61C574.94 1052.68 573.139 1064.69 571.652 1076.85C596.017 1082.38 620.795 1082.16 646.27 1080.87C651.686 1062.37 652.102 1042.85 656.479 1022.69ZM559.223 1075.86C561.422 1063.93 563.45 1053.26 565.321 1042.57C565.816 1039.74 566.816 1036.42 565.84 1034.04C564.189 1030.02 562.634 1026.71 565.96 1022.76C566.518 1022.09 565.055 1019.25 563.996 1017.8C558.313 1009.99 552.472 1002.31 546.667 994.591C543.221 990.01 539.74 985.455 535.09 979.326C533.16 1012.61 529.728 1043.96 522.947 1075.86L559.223 1075.86Z" fill="#395659"/>
<path d="M1714.32 1082.25C1723.48 1071.8 1731.28 1062.9 1739.23 1053.82C1728.74 1035.08 1712.06 1022.5 1698.89 1006.11C1672.79 1023.71 1651.35 1046.51 1627.79 1065.44C1632.44 1071.12 1636.68 1076.3 1640.56 1081.04C1632.09 1083.57 1623.96 1080.28 1619.88 1071.68C1617.76 1067.22 1618.85 1062.81 1621.54 1059.09C1623.57 1056.29 1626.55 1054.2 1628.95 1051.64C1641.6 1038.16 1655.18 1025.64 1669.1 1013.5C1677.17 1006.45 1685.47 999.649 1693.92 993.058C1700.02 988.304 1704.38 989.326 1709.77 994.992C1718.18 1003.84 1727.24 1012.1 1735.47 1021.1C1742.62 1028.92 1749.19 1037.3 1755.67 1045.7C1759.57 1050.75 1758.27 1056.16 1754.62 1060.78C1750 1066.63 1745.04 1072.22 1740.08 1077.78C1737.43 1080.75 1734.35 1082.75 1729.91 1082.34C1725.41 1081.92 1720.85 1082.25 1714.32 1082.25Z" fill="#395659"/>
<path d="M1674.31 820.263C1673.17 822.254 1672.64 824.47 1671.24 825.424C1655.13 836.44 1642.8 851.614 1628.22 864.308C1616.85 874.198 1606.67 885.428 1595.54 895.606C1579.49 910.287 1563.06 924.546 1546.81 939.008C1543.9 941.597 1541.17 944.389 1538.21 946.91C1536.51 948.352 1534.64 949.806 1532.59 950.541C1531.39 950.972 1529.21 950.455 1528.34 949.539C1527.43 948.583 1527.2 946.595 1527.37 945.136C1527.5 944.011 1528.6 942.929 1529.43 941.964C1534.49 936.078 1539.23 929.862 1544.75 924.442C1561.07 908.421 1577.86 892.87 1594.18 876.846C1607.47 863.8 1619.99 849.959 1633.54 837.199C1641.95 829.274 1651.51 822.514 1660.86 815.647C1663.87 813.437 1667.96 812.069 1671.41 815.419C1672.68 816.649 1673.31 818.537 1674.31 820.263Z" fill="#395659"/>
<path d="M1706.67 858.484C1707.65 860.666 1708.31 862.125 1709.34 864.423C1706.34 867.296 1703.24 870.399 1700 873.338C1694.71 878.127 1689.23 882.704 1684 887.557C1667.67 902.72 1651.33 917.872 1635.17 933.215C1620.19 947.428 1605.45 961.875 1590.61 976.231C1585.02 981.642 1579.68 987.337 1573.79 992.398C1571.31 994.525 1567.71 995.345 1564.77 996.691C1561.98 993.286 1561.32 990.903 1563.85 988.166C1577.36 973.506 1590.25 958.298 1605.09 944.836C1609.85 940.515 1613.84 935.048 1618.32 930.191C1629.02 918.575 1640.73 908.098 1652.38 897.5C1659.52 891.012 1665.86 883.666 1672.85 877.006C1678.48 871.643 1684.47 866.654 1690.42 861.643C1695.13 857.669 1700.65 856.954 1706.67 858.484Z" fill="#395659"/>
<path d="M1743.69 897.379C1746.01 903.915 1741.57 907.682 1738.14 911.132C1719.63 929.778 1701.03 948.342 1682.05 966.504C1666.02 981.833 1649.39 996.534 1633.11 1011.6C1624.86 1019.23 1616.88 1027.17 1608.57 1034.73C1604.92 1038.04 1604.67 1037.77 1599.89 1032.43C1603.59 1027.9 1607.07 1022.97 1611.22 1018.68C1632.22 996.97 1653.35 975.39 1674.52 953.849C1685.81 942.357 1697.22 930.979 1708.7 919.673C1711.45 916.965 1714.73 914.798 1717.69 912.293C1722.37 908.329 1727.1 904.406 1731.6 900.242C1734.93 897.168 1738.39 895.379 1743.69 897.379Z" fill="#395659"/>
<path d="M1460.62 865.954C1462.95 862.979 1464.78 859.999 1467.21 857.651C1479.07 846.215 1490.88 834.714 1503.11 823.686C1516.54 811.575 1530.45 799.986 1544.09 788.101C1547.76 784.905 1551.14 781.382 1554.77 778.143C1571.19 763.512 1587.56 748.823 1606.45 736.972C1608.51 738.46 1610.56 739.948 1612.43 741.3C1613.61 745.011 1611.47 747.033 1609.25 749.049C1606.19 751.828 1603.33 754.851 1600.09 757.409C1585.13 769.239 1571.46 782.573 1556.6 794.517C1547.99 801.445 1538.6 807.565 1530.74 815.257C1517.25 828.471 1503.17 840.982 1488.86 853.264C1483.05 858.251 1476.84 862.769 1470.79 867.482C1467.83 869.793 1464.91 869.873 1460.62 865.954Z" fill="#395659"/>
<path d="M1630.92 789.466C1628.83 792.598 1627.53 795.574 1625.35 797.625C1615.29 807.11 1605.66 817.249 1594.59 825.428C1580.48 835.863 1568.47 848.496 1555.34 859.928C1542.02 871.527 1529.45 883.999 1516.65 896.187C1512.05 900.572 1512.17 900.703 1505.12 898.782C1506.15 896.102 1506.64 893.141 1508.23 890.995C1511.68 886.346 1515.4 881.802 1519.55 877.773C1530.6 867.039 1541.64 856.257 1553.24 846.126C1570.99 830.623 1589.23 815.668 1607.22 800.437C1610.88 797.335 1614.21 793.813 1618.02 790.912C1621.26 788.445 1624.8 785.7 1630.92 789.466Z" fill="#395659"/>
<path d="M1752.19 1005.45C1745.2 1001.77 1744.48 999.901 1749.32 994.167C1762.39 978.662 1775.9 963.549 1793.12 951.385C1794.78 952.261 1797.75 952.872 1798.21 954.286C1798.84 956.273 1798.43 959.637 1797.05 961.065C1782.47 976.228 1770.66 994.21 1752.19 1005.45Z" fill="#395659"/>
<path d="M421.087 1067.06C419.952 1071.69 418.501 1073.96 415.047 1074.38C412.261 1074.72 409.503 1075.41 406.711 1075.56C389.939 1076.46 373.184 1078.03 356.356 1077.05C353.177 1076.87 349.957 1076.84 346.844 1076.26C344.746 1075.87 342.255 1075.14 340.947 1073.66C339.699 1072.26 338.809 1069.27 339.498 1067.77C340.216 1066.21 343.193 1064.46 344.867 1064.73C367.495 1068.4 390.244 1065.65 412.914 1066.36C415.428 1066.44 417.933 1066.78 421.087 1067.06Z" fill="#395659"/>
<path d="M1766.63 1036.13C1765.62 1031.79 1765.02 1029.19 1764.27 1025.97C1777.75 1014.21 1791.23 1002.42 1804.77 990.702C1805.96 989.674 1807.51 988.617 1808.98 988.474C1810.76 988.301 1813.45 988.492 1814.26 989.604C1815.36 991.126 1816.03 994.252 1815.18 995.653C1812.86 999.451 1810.05 1003.16 1806.71 1006.08C1797.54 1014.1 1788.11 1021.83 1778.54 1029.38C1775.4 1031.85 1771.54 1033.4 1766.63 1036.13Z" fill="#395659"/>
<path d="M1775.56 586.555C1777.44 589.727 1778.41 591.348 1779.63 593.402C1778.09 595.425 1776.81 597.721 1774.97 599.406C1763.1 610.286 1750.24 619.95 1736.7 628.633C1733.98 630.377 1730.19 630.464 1727.16 631.247C1724.6 626.446 1726.09 623.676 1729.12 621.329C1739.09 613.609 1749 605.808 1759.05 598.193C1764.1 594.363 1769.41 590.867 1775.56 586.555Z" fill="#395659"/>
<path d="M1770.62 946.38C1772.59 948.026 1774.5 948.973 1775.27 950.494C1775.78 951.514 1775.16 953.831 1774.24 954.744C1764.47 964.372 1754.58 973.881 1744.61 983.292C1743 984.806 1740.75 985.617 1738.86 986.855C1736.41 988.464 1733.58 989.125 1732.14 986.298C1731.16 984.357 1731.24 981.312 1732.03 979.202C1732.73 977.337 1735.06 976.08 1736.68 974.558C1744.14 967.522 1751.43 960.288 1759.15 953.547C1762.46 950.658 1766.67 948.797 1770.62 946.38Z" fill="#395659"/>
<path d="M-39.3205 134.704C-46.3934 141.079 -51.4853 148.449 -54.0392 157.945C-55.854 164.693 -57.2464 171.301 -57.0872 178.232C-56.9175 185.62 -55.2575 192.79 -52.246 199.46C-46.7733 211.583 -37.8314 220.947 -27.1398 228.662C-18.1917 235.119 -8.52727 240.371 1.82759 244.164C8.69945 246.681 15.7222 248.916 22.8366 250.604C30.2704 252.369 37.8652 253.548 45.4441 254.58C53.7169 255.707 62.0563 255.604 70.3628 254.699C71.5468 254.57 72.6939 254.108 74.1867 253.713C73.6724 252.094 73.3199 250.641 72.7567 249.274C70.8118 244.553 71.392 239.627 72.1396 234.905C72.577 232.143 74.4154 229.459 76.0924 227.068C80.1435 221.292 85.2407 216.704 92.1249 214.421C95.8448 213.188 99.6404 212.746 103.427 213.756C110.936 215.758 116.371 220.321 119.077 227.667C120.943 232.734 119.464 237.27 115.76 241.026C110.784 246.071 104.598 249.359 98.2347 252.21C93.8335 254.181 89.1546 255.536 84.2113 257.306C85.4617 260.712 87.7038 263.794 90.4157 266.286C102.198 277.113 115.415 285.592 130.448 291.456C149.574 298.916 169.406 303.049 189.627 305.749C193.384 306.25 197.159 306.616 200.933 306.972C204.347 307.293 207.413 306.632 210.223 304.364C213.321 301.863 216.808 299.848 220.003 297.457C221.75 296.149 223.282 296.22 225.347 296.764C233.969 299.036 241.983 302.853 250.171 306.209C256.129 308.651 261.93 311.473 267.801 314.126C274.655 317.222 281.525 320.284 288.358 323.425C295.367 326.647 302.349 329.93 309.319 333.236C310.078 333.596 310.665 334.305 311.363 334.809C313.558 336.395 315.367 338.425 317.945 339.603C319.778 340.441 321.761 341.784 321.182 344.614C320.655 346.856 318.38 347.277 316.521 347.857C313.297 348.861 309.961 349.698 306.612 350.07C302.305 350.548 297.938 350.651 293.597 350.641C287.222 350.626 280.848 350.359 274.473 350.219C261.14 349.925 247.802 349.766 234.475 349.276C231.051 349.15 227.681 347.877 224.253 347.343C217.072 346.222 209.862 345.281 202.679 344.17C201.32 343.96 199.973 343.427 198.719 342.834C195.293 341.213 194.698 338.248 197.251 335.292C198.7 333.613 200.368 332.124 202.389 330.096C198.17 329.798 194.442 329.877 190.864 329.183C187.423 328.516 183.654 331.156 180.164 327.293C180.305 326.869 180.325 325.439 181.023 324.923C186.533 320.855 192.177 316.968 197.763 313.002C198.287 312.63 198.701 312.103 199.557 311.264C191.897 310.298 184.715 309.611 177.61 308.448C165.463 306.46 153.318 304.607 141.5 300.765C132.562 297.86 123.714 294.753 115.35 290.607C103.624 284.794 92.6977 277.638 84.0646 267.536C81.7289 264.803 79.5998 261.893 77.1742 258.808C75.3248 258.973 73.2454 259.04 71.2056 259.358C57.8006 261.448 44.5067 260.176 31.3303 257.663C23.7223 256.212 16.236 254.113 8.73439 252.101C-2.16569 249.178 -11.9489 243.998 -21.7177 238.832C-26.629 236.234 -31.2164 232.758 -35.6266 229.075C-40.0772 225.359 -44.1617 221.461 -47.8183 217.048C-54.7446 208.688 -59.3671 199.11 -61.578 188.562C-63.2221 180.718 -63.3084 172.708 -61.2705 164.815C-60.2555 160.883 -59.5529 156.857 -58.3222 152.998C-56.4456 147.112 -52.7682 142.22 -48.8789 137.523C-47.447 135.794 -45.7537 134.28 -44.1796 132.669C-42.5599 133.347 -40.9402 134.026 -39.3205 134.704ZM81.2263 252.505C91.2959 250.414 100.745 246.632 109.105 240.549C111.373 238.899 112.903 236.146 114.528 233.734C115.794 231.857 115.581 229.74 114.381 227.807C108.961 219.069 100.574 215.46 90.4474 220.781C86.4283 222.893 83.7579 226.161 81.0661 229.527C75.6694 236.275 75.7136 245.124 81.2263 252.505ZM202.674 337.388C233.87 342.999 264.8 342.981 296.577 343.193C295.355 342.428 294.955 342.006 294.489 341.912C284.944 339.975 275.448 337.692 265.826 336.273C255.537 334.755 245.148 333.669 234.765 333.131C226.994 332.728 219.378 331.301 211.657 330.686C211.244 330.653 210.862 330.24 210.42 329.977C207.931 332.358 205.551 334.635 202.674 337.388ZM210.017 311.927C206.149 315.843 200.316 318.269 195.506 323.392C217.33 325.261 238.228 327.052 259.453 328.87C242.871 323.187 226.663 317.632 210.017 311.927ZM283.344 328.219C274.973 324.53 266.582 320.883 258.236 317.138C251.739 314.222 245.283 311.213 238.836 308.186C235.811 306.766 232.913 305.064 229.847 303.747C225.886 302.044 221.927 301.02 218.843 305.508C218.191 306.456 217.065 307.079 215.92 308.055C238.111 316.306 260.771 321.901 283.344 328.219Z" fill="#395659"/>
<path d="M202.656 337.384C205.532 334.631 207.913 332.354 210.401 329.973C210.843 330.236 211.226 330.649 211.638 330.682C219.359 331.297 226.975 332.724 234.747 333.127C245.129 333.666 255.519 334.751 265.807 336.269C275.429 337.688 284.926 339.971 294.471 341.908C294.936 342.002 295.336 342.424 296.558 343.189C264.782 342.977 233.852 342.996 202.656 337.384Z" fill="#A5CB00"/>
<path d="M209.995 311.922C226.641 317.627 242.849 323.182 259.431 328.866C238.206 327.047 217.308 325.257 195.484 323.387C200.294 318.264 206.127 315.838 209.995 311.922Z" fill="#A5CB00"/>
<path d="M283.324 328.216C260.751 321.897 238.091 316.303 215.9 308.051C217.046 307.076 218.172 306.453 218.823 305.504C221.908 301.016 225.867 302.04 229.827 303.743C232.893 305.061 235.791 306.762 238.816 308.182C245.263 311.209 251.719 314.218 258.217 317.134C266.563 320.88 274.953 324.526 283.324 328.216Z" fill="#A5CB00"/>
<path d="M1832.46 658.092C1839.52 651.479 1846.7 644.982 1853.58 638.184C1855.81 635.983 1857.36 633.053 1859.01 630.333C1859.64 629.297 1860.36 627.529 1859.91 626.746C1855.55 619.202 1855.94 608.935 1846.39 603.732C1851.15 600.652 1855.45 597.301 1860.24 594.892C1868.1 590.934 1877.11 593.962 1881.73 601.505C1888.79 613.033 1884.14 623.035 1874.51 630.164C1871.52 632.378 1867.59 633.396 1863.98 634.675C1861.06 635.711 1859.52 637.622 1860.12 640.526C1860.74 643.483 1863.19 644.611 1866.07 644.297C1872.04 643.648 1876.92 640.315 1881.58 637.055C1898.65 625.138 1899.79 609.312 1890.78 594.95C1882.27 581.382 1861.44 575.464 1847.97 591.62C1846.54 593.335 1844.69 594.709 1843.38 595.934C1834.94 591.573 1826.38 587.149 1818.08 582.861C1827.47 575.95 1837.88 569.725 1846.42 561.55C1853.77 554.513 1861.77 548.83 1870.99 542.874C1879 554.397 1886.9 565.928 1894.96 577.345C1901.1 586.034 1908.87 594.591 1913.98 603.898C1915.56 606.769 1915.59 609.971 1918.78 611.176C1921.41 612.167 1924.9 608.724 1927.22 611.589C1927.94 612.475 1926.76 617.852 1926.79 618.992C1926.98 626.552 1926.96 628.458 1926.79 636.018C1926.74 638.344 1927.93 642.248 1927.01 644.386C1925.33 648.283 1921.29 650.531 1917.46 652.371C1910.67 655.639 1902.43 657.615 1896.22 661.748C1890.27 665.709 1884.56 671.323 1878.95 675.885C1866.4 686.109 1854.32 696.95 1843.34 708.869C1835.7 705.917 1831.07 699.095 1825.5 693.63C1819.84 688.087 1815.03 681.698 1809.28 675.028C1816.43 668.958 1824.56 663.435 1832.66 657.884C1832.42 667.995 1839.39 672.981 1847.09 676.74C1849.93 678.129 1854.19 677.635 1857.47 676.749C1859.38 676.232 1860.61 673.235 1862.96 670.356C1857.3 668.942 1852.47 668.692 1848.73 666.552C1844.42 664.086 1841.06 659.952 1837.5 656.734C1835.57 657.255 1834.01 657.674 1832.46 658.092ZM1851.56 653.299C1853.99 656.166 1855.56 659.263 1858.07 660.653C1861.33 662.454 1865.29 663.516 1869.03 663.763C1873.81 664.08 1874.63 662.695 1876.03 655.658C1868.76 652.321 1862.18 644.663 1851.56 653.299ZM1875.38 619.197C1872.75 616.277 1870.29 613.054 1867.28 610.484C1866.21 609.574 1862.94 609.513 1862.17 610.383C1860.96 611.755 1860.26 614.446 1860.74 616.197C1861.24 618.02 1863.11 620.032 1864.89 620.818C1868.05 622.215 1871.62 622.98 1875.38 619.197Z" fill="white"/>
<path d="M1830.54 622.048C1834.47 621.076 1837.78 620.257 1841.09 619.435C1842.53 621.553 1843.95 623.659 1845.58 626.061C1840.46 630.939 1835.16 635.993 1828.73 642.124C1829.47 637.89 1830.22 634.835 1830.48 631.739C1830.75 628.565 1830.54 625.351 1830.54 622.048Z" fill="white"/>
<path d="M1510.44 357.823C1512.7 363.647 1513.82 368.532 1516.32 372.576C1523.91 384.903 1534.22 394.513 1547.83 399.938C1559.78 404.703 1571.56 409.861 1584.31 412.593C1596.19 415.139 1607.76 414.215 1619.16 411.242C1627.88 408.968 1636.39 405.708 1644.75 402.29C1654.78 398.188 1662.73 391.172 1669.39 382.705C1670.59 381.178 1671.61 379.513 1673.35 377.002C1674.08 379.265 1674.99 380.784 1674.99 382.307C1675.04 391.949 1675.01 401.596 1674.77 411.235C1674.54 420.212 1673.91 429.178 1673.65 438.154C1673.05 458.201 1672.59 478.251 1672.03 498.299C1672 499.225 1671.62 500.14 1671.21 501.856C1665.27 500.813 1661.2 504.408 1656.85 507.777C1652.56 511.105 1648.14 513.745 1642.09 514.181C1634.31 514.744 1626.71 517.476 1618.94 518.778C1611.29 520.06 1603.56 520.868 1595.83 521.622C1585.11 522.67 1574.48 521.68 1563.78 520.435C1554.67 519.376 1546.37 515.899 1537.6 513.93C1530.12 512.251 1525.01 507.726 1521.64 500.924C1514.48 486.462 1512.02 471.047 1511.91 455.098C1511.79 437.988 1510.41 420.982 1508.58 403.958C1507.53 394.223 1508.55 384.248 1508.9 374.39C1509.09 369.237 1509.83 364.104 1510.44 357.823Z" fill="white"/>
<path d="M1524.09 355.867C1524.21 340.113 1530.88 329.162 1542.75 322.266C1561.68 311.269 1582.11 304.098 1604.48 306.912C1617.3 308.524 1629.68 312.215 1639.51 321.573C1642.78 324.687 1646.63 327.195 1649.84 330.368C1652.29 332.798 1654.14 335.837 1656.54 338.967C1651.3 340.799 1648.38 337.512 1645.5 335.339C1641.52 332.334 1637.46 330.537 1632.47 329.617C1627.51 328.702 1623 325.585 1618.08 324.119C1607.68 321.015 1597.17 320.604 1586.2 321.669C1572.75 322.975 1560.32 326.95 1548.17 332.194C1540.65 335.439 1534.09 340.159 1530.04 347.726C1528.7 350.227 1526.68 352.367 1524.09 355.867Z" fill="white"/>
<path d="M1688.23 405.405V395.527C1688.53 395.522 1688.83 395.516 1689.13 395.51V405.394L1688.23 405.405Z" fill="white"/>
<path d="M1400.95 868.853C1415.24 881.47 1422.17 898.456 1436.36 912.382C1429.85 910.994 1427.6 907.171 1425.06 904.435C1417.19 895.952 1409.91 886.918 1402.19 878.286C1399.93 875.749 1399.54 873.322 1400.95 868.853Z" fill="white"/>
<path d="M1552.68 1046.85C1549.5 1044.56 1546.6 1042.06 1544.87 1038.64C1545.46 1038.21 1546.05 1037.78 1546.65 1037.35C1548.62 1040.55 1550.59 1043.75 1552.56 1046.95L1552.68 1046.85Z" fill="white"/>
<path d="M321.743 944.267C327.87 948.499 333.657 952.495 339.765 956.713C330.903 958.073 321.918 959.451 311.789 961.005C315.492 954.779 318.652 949.466 321.743 944.267Z" fill="white"/>
<path d="M1222.91 1035.35C1212.99 1037.93 1200.27 1041.41 1187.45 1044.52C1181.19 1046.04 1174.79 1047.09 1168.41 1047.94C1159.66 1049.09 1154.05 1042.59 1156.45 1034.03C1160.96 1017.91 1165.78 1001.88 1170.34 985.782C1175.27 968.377 1179.74 950.835 1185.03 933.539C1188.04 923.701 1194.1 916.582 1204.82 913.282C1213.26 910.685 1221.6 907.95 1230.28 906.25C1235.24 905.279 1238.74 906.722 1242.14 910.637C1260.01 931.226 1278.12 951.615 1296.27 971.965C1299.48 975.565 1303.15 978.787 1306.8 981.953C1312.91 987.248 1313.06 994.928 1303.92 998.775C1292.03 1003.78 1281.17 1010.34 1270.57 1017.64C1265.1 1021.4 1258.52 1023.74 1252.19 1026.04C1243.5 1029.19 1234.57 1031.68 1222.91 1035.35ZM1167.93 1037.48L1254.1 1012.68C1246.52 997.287 1234.74 985.848 1225.4 972.678C1216.03 959.481 1206.85 946.154 1197.72 933.06C1189.17 967.981 1179.43 1002.63 1167.93 1037.48ZM1206.97 926.211C1214.19 936.075 1220.36 946.075 1228.08 954.701C1241.21 969.39 1252.53 985.343 1263.47 1001.61C1265.72 1004.95 1267.76 1004.83 1270.66 1003.06C1275.88 999.866 1281.22 996.87 1286.34 993.533C1288 992.45 1289.14 990.554 1290.4 989.151C1268.33 965.943 1247.89 942.634 1230.46 915.908C1222.3 919.488 1215 922.688 1206.97 926.211Z" fill="#395659"/>
<path d="M1167.93 1037.48C1179.43 1002.63 1189.17 967.98 1197.72 933.06C1206.86 946.154 1216.04 959.481 1225.4 972.678C1234.74 985.847 1246.52 997.287 1254.1 1012.68L1167.93 1037.48Z" fill="#A5CB00"/>
<path d="M1206.98 926.208C1215.01 922.686 1222.31 919.486 1230.47 915.905C1247.9 942.631 1268.34 965.941 1290.41 989.148C1289.14 990.552 1288.01 992.447 1286.35 993.53C1281.23 996.868 1275.89 999.864 1270.67 1003.05C1267.77 1004.83 1265.72 1004.95 1263.47 1001.61C1252.53 985.341 1241.22 969.387 1228.08 954.698C1220.37 946.073 1214.2 936.073 1206.98 926.208Z" fill="#A5CB00"/>
<path d="M1832.47 658.092C1834.02 657.674 1835.58 657.255 1837.51 656.734C1841.07 659.952 1844.43 664.086 1848.74 666.552C1852.48 668.692 1857.31 668.942 1862.97 670.356C1860.62 673.235 1859.39 676.233 1857.48 676.749C1854.2 677.635 1849.94 678.129 1847.09 676.74C1839.39 672.982 1832.42 667.995 1832.67 657.884L1832.47 658.092Z" fill="#395659"/>
<path d="M1851.56 653.299C1862.18 644.663 1868.76 652.321 1876.04 655.658C1874.63 662.695 1873.81 664.08 1869.03 663.764C1865.3 663.516 1861.33 662.454 1858.08 660.653C1855.56 659.263 1854 656.166 1851.56 653.299Z" fill="#395659"/>
<path d="M1875.39 619.197C1871.63 622.98 1868.06 622.215 1864.9 620.818C1863.12 620.032 1861.25 618.02 1860.75 616.197C1860.27 614.446 1860.97 611.755 1862.18 610.383C1862.94 609.513 1866.22 609.574 1867.28 610.484C1870.3 613.054 1872.75 616.277 1875.39 619.197Z" fill="#395659"/>
<path d="M-22.1138 918.753C-23.0131 931.789 -24.1935 943.39 -24.5246 955.016C-25.0052 971.89 -26.2103 988.665 -29.0472 1005.31C-31.6454 1020.56 -34.4247 1035.78 -36.7736 1051.06C-38.0944 1059.65 -38.7056 1068.36 -39.6998 1077.6H-52.7165C-52.7165 1072.09 -53.4124 1066.6 -52.593 1061.34C-49.4661 1041.28 -45.0555 1021.39 -42.652 1001.25C-40.4433 982.747 -37.2971 964.29 -37.3177 945.521C-37.3274 936.613 -36.0167 927.712 -35.6551 918.793C-35.4199 912.995 -32.2794 909.756 -27.1652 908.493C-20.9248 906.953 -14.5738 905.499 -8.19003 904.962C14.9572 903.015 38 899.448 61.3325 900.11C61.9017 900.126 62.4836 899.697 64.1532 899.054C63.8304 894.462 64.072 889.372 63.0031 884.572C61.1137 876.087 60.2635 867.564 60.2513 858.927C60.2406 851.33 63.4049 847.224 71.0246 845.314C93.8125 839.601 116.57 833.744 139.461 828.472C156.123 824.635 172.966 821.572 189.76 818.324C192.606 817.774 195.61 817.988 198.542 817.936C207.505 817.777 211.477 820.234 212.89 828.793C215.976 847.491 220.826 865.943 221.16 885.054C221.277 891.778 222.202 892.469 229.872 892.689C247.888 893.206 265.919 893.416 283.916 894.319C297.966 895.024 311.976 896.562 326 897.777C334.388 898.503 342.771 899.285 351.151 900.098C364.623 901.406 370.552 908.807 370.512 922.49C370.469 937.055 367.206 951.167 365.461 965.482C363.342 982.865 360.63 1000.18 357.853 1017.48C355.968 1029.22 353.472 1040.86 351.357 1052.57C349.885 1060.72 348.598 1068.9 347.127 1077.67H334.455C337.087 1061.55 339.848 1046.17 342.062 1030.72C345.018 1010.09 347.42 989.385 350.325 968.75C351.494 960.45 353.66 952.291 354.839 943.992C356.222 934.259 358.794 924.555 356.796 914.742C346.582 909.608 335.307 909.493 324.515 908.754C310.709 907.81 296.997 905.798 283.049 905.775C267.247 905.75 251.453 903.545 235.646 902.417C231.795 902.142 227.907 902.376 224.219 902.376C225.771 916.063 226.998 929.283 228.937 942.398C229.461 945.943 232.141 949.17 234.048 952.976C231.363 963.546 229.37 965.34 218.144 966.732C208.259 967.959 198.356 969.058 188.492 970.437C185.36 970.874 182.329 972.029 179.861 972.692C179.966 993.21 181.159 1012.95 178.517 1032.78C176.575 1047.36 176.579 1062.2 175.68 1077.55H164.98C165.874 1043.45 170.822 1009.6 169.88 975.596C162.739 972.411 156.612 976.198 150.445 976.945C133.872 978.953 117.435 982.103 100.961 984.892C94.9715 985.907 89.0698 987.735 83.0515 988.198C76.0487 988.738 73.7779 986.539 72.5348 979.806C72.1246 977.584 72.2109 975.269 72.0911 972.996C71.6558 964.74 70.8929 956.704 68.5399 948.542C65.8527 939.221 65.7732 929.146 64.6306 919.39C64.2811 916.405 64.1626 913.394 63.9106 910.025C34.3411 909.836 6.09116 913.722 -22.1138 918.753ZM84.5205 974.172C113.037 969.341 140.802 964.638 168.892 959.88C169.045 955.782 166.038 951.536 169.967 948.673C176.808 943.688 179.017 936.7 180.153 928.743C181.335 920.463 187.381 918.294 194.215 923.36C197.325 925.666 200.057 928.481 202.948 931.078C205.858 933.692 208.753 936.322 212.52 939.727C208.554 902.127 205.273 866.119 198.542 830.145C155.634 838.582 113.302 846.906 70.7846 855.267C70.7846 856.538 70.5971 857.502 70.8123 858.366C75.2213 876.063 78.1082 893.97 78.3317 912.245C78.3899 917 78.0144 921.78 78.381 926.506C78.8804 932.944 79.6448 939.39 80.8507 945.727C81.222 947.678 84.1751 949.136 84.5563 951.09C84.9638 953.178 83.2607 955.595 83.3071 957.852C83.4113 962.939 84.0268 968.015 84.5205 974.172ZM190.162 940.24C187.07 945.438 183.91 950.751 180.207 956.978C190.336 955.424 199.322 954.045 208.184 952.686C202.075 948.467 196.289 944.471 190.162 940.24Z" fill="#395659"/>
<path d="M207.414 984.846C209.761 984.345 211.567 983.514 213.293 983.657C239.48 985.827 265.726 985.838 291.971 986.183C302.927 986.327 313.884 987.299 324.808 988.255C327.931 988.528 331.076 989.774 333.965 991.105C336.506 992.275 336.323 996.47 333.644 997.257C330.662 998.133 327.372 998.413 324.247 998.271C313.917 997.803 303.605 996.943 293.276 996.417C289.781 996.239 286.237 996.412 282.75 996.763C265.592 998.488 248.51 995.971 231.384 995.877C225.287 995.844 219.201 994.554 213.104 993.892C208.26 993.365 207.979 989.743 207.414 984.846Z" fill="#395659"/>
<path d="M134.584 1052.54C128.506 1054.41 124.958 1056.16 121.276 1056.51C111.622 1057.44 101.907 1057.71 92.2226 1058.34C84.1976 1058.86 76.1814 1060 68.1612 1060C56.2721 1060 44.3983 1060.61 32.5142 1060.52C25.3694 1060.47 18.2012 1060.59 11.0938 1060.01C8.44423 1059.8 4.26224 1059.61 4.64127 1055.13C4.9477 1051.51 8.04724 1050.63 11.109 1050.48C26.6253 1049.7 42.1412 1048.87 57.6669 1048.34C77.7123 1047.65 97.7655 1047.15 117.819 1046.75C121.297 1046.68 124.851 1047.26 128.254 1048.04C129.804 1048.4 131.074 1049.97 134.584 1052.54Z" fill="#395659"/>
<path d="M121.331 1010.28C120.673 1016.78 117.382 1017.38 113.559 1017.64C99.476 1018.56 85.3966 1019.55 71.3257 1020.64C52.6056 1022.09 33.896 1023.67 15.1784 1025.15C12.9094 1025.33 10.6184 1025.22 8.33857 1025.28C3.61557 1025.4 1.03911 1023.16 0.671875 1018.29C2.47849 1014.69 6.00035 1013.99 9.57719 1013.72C26.1912 1012.49 42.8108 1011.34 59.4338 1010.23C64.9518 1009.87 70.4877 1009.78 76.0121 1009.5C86.9179 1008.94 97.8171 1008.07 108.728 1007.9C112.752 1007.83 116.8 1009.37 121.331 1010.28Z" fill="#395659"/>
<path d="M319.137 1028.09C316.99 1034.61 313.046 1035.26 308.663 1034.77C300.423 1033.84 292.228 1032.28 283.967 1031.83C261.154 1030.57 238.431 1028.5 215.792 1025.46C214.2 1025.25 212.266 1025.36 211.135 1024.48C209.537 1023.25 207.831 1021.39 207.454 1019.53C206.9 1016.81 208.464 1013.93 211.413 1013.79C217.323 1013.51 224.038 1008.32 229.012 1016.11C229.402 1016.72 231.265 1016.39 232.443 1016.5C242.377 1017.45 252.318 1018.32 262.242 1019.36C270.893 1020.26 279.53 1021.32 288.163 1022.39C295.213 1023.26 302.273 1024.11 309.282 1025.26C312.373 1025.76 315.348 1026.97 319.137 1028.09Z" fill="#395659"/>
<path d="M333.816 944.511C330.512 947.123 327.382 948.843 323.159 948.942C303.229 949.407 283.308 949.842 263.404 948.26C262.483 948.187 261.429 948.497 260.65 948.151C257.862 946.909 255.598 945.237 256.325 941.57C257.055 937.886 259.767 936.719 262.813 937.31C274.881 939.65 287.082 938.785 299.225 939.146C308.214 939.413 317.218 939.269 326.215 939.203C329.686 939.177 332.797 939.461 333.816 944.511Z" fill="#395659"/>
<path d="M-7.39844 974.829C-2.75652 973.392 1.67094 971.226 6.27551 970.743C20.717 969.229 34.9526 965.266 49.6456 966.639C54.1184 967.056 58.617 967.68 62.9671 968.758C65.9239 969.491 66.9615 972.207 65.9329 974.992C65.0725 977.321 63.2708 977.895 60.445 977.362C47.128 974.85 33.9965 977.439 20.8322 979.287C13.9385 980.254 6.97777 980.902 0.0252209 981.236C-4.43216 981.45 -4.45021 981.074 -7.39844 974.829Z" fill="#395659"/>
<path d="M84.5226 974.172C84.0288 968.015 83.4134 962.939 83.3091 957.852C83.2628 955.595 84.9659 953.178 84.5584 951.09C84.1772 949.136 81.224 947.678 80.8527 945.727C79.6468 939.39 78.8825 932.944 78.3831 926.506C78.0164 921.78 78.392 917 78.3338 912.245C78.1102 893.97 75.2233 876.063 70.8144 858.366C70.5991 857.502 70.7866 856.538 70.7866 855.267C113.304 846.906 155.636 838.582 198.544 830.145C205.275 866.119 208.556 902.127 212.522 939.727C208.755 936.322 205.86 933.692 202.95 931.078C200.059 928.481 197.327 925.666 194.217 923.36C187.383 918.294 181.337 920.463 180.155 928.743C179.019 936.7 176.81 943.688 169.969 948.673C166.04 951.536 169.047 955.782 168.894 959.88C140.804 964.638 113.039 969.341 84.5226 974.172ZM113.71 906.773C109.774 912.832 110.853 918.849 111.391 924.819C112.186 933.636 122.424 939.515 130.959 932.601C133.963 930.168 137.33 928.118 140.053 925.414C151.669 913.879 163.133 902.192 174.589 890.499C177.765 887.258 177.65 884.505 174.44 879.732C163.453 883.003 156.581 891.865 148.69 899.191C141.619 905.754 135.325 913.146 128.456 919.937C126.888 921.488 124.364 922.074 121.925 923.279C120.188 916.771 122.542 909.333 113.71 906.773ZM121.921 864.507C119.649 867.015 117.015 868.716 116.24 871.035C114.73 875.555 113.709 880.395 113.485 885.149C113.125 892.772 119.923 896.87 126.735 893.459C129.022 892.315 131.223 890.856 133.165 889.192C145.623 878.517 158.16 867.922 170.275 856.867C173.003 854.378 176.76 851.232 174.53 846.168C170.354 844.124 166.737 844.446 162.703 848.035C150.039 859.308 136.947 870.102 123.832 881.242C122.556 875.9 126.96 870.847 121.921 864.507Z" fill="white"/>
<path d="M113.708 906.773C122.539 909.333 120.186 916.771 121.923 923.279C124.362 922.074 126.886 921.488 128.454 919.937C135.323 913.146 141.617 905.754 148.688 899.19C156.579 891.865 163.451 883.003 174.438 879.732C177.647 884.505 177.763 887.258 174.587 890.499C163.131 902.192 151.667 913.879 140.051 925.414C137.328 928.118 133.961 930.168 130.957 932.601C122.422 939.515 112.184 933.636 111.389 924.819C110.85 918.849 109.771 912.832 113.708 906.773Z" fill="#395659"/>
<path d="M121.918 864.507C126.958 870.847 122.553 875.9 123.83 881.242C136.945 870.102 150.036 859.308 162.701 848.035C166.734 844.446 170.351 844.124 174.528 846.168C176.757 851.232 173 854.378 170.273 856.867C158.158 867.922 145.62 878.517 133.162 889.192C131.221 890.856 129.019 892.315 126.733 893.459C119.92 896.87 113.123 892.772 113.482 885.149C113.707 880.395 114.727 875.555 116.238 871.035C117.013 868.715 119.646 867.015 121.918 864.507Z" fill="#395659"/>
<path d="M1047.49 209.079C1037.73 216.954 1026.69 218.554 1015.57 218.553C1005.53 218.553 996.248 214.848 988.136 208.882C980.75 203.449 975.988 196.324 973.213 187.318C969.709 175.946 968.525 164.711 972.633 153.583C979.289 135.555 995.985 119.338 1018.16 119.123C1026.04 119.047 1033.18 120.354 1040.47 123.458C1051.97 119.032 1059.56 125.852 1067.43 134.054C1078.02 130.906 1089.06 127.92 1099.89 124.325C1113.34 119.866 1126.59 114.806 1140 110.217C1143.99 108.849 1148.19 107.846 1152.37 107.307C1156.61 106.76 1159.1 109.074 1158.45 113.233C1156.73 124.342 1157.14 135.439 1158.03 146.528C1159.31 162.638 1161.39 178.536 1168.76 193.36C1172.62 201.104 1176.3 208.739 1181.84 215.546C1186.87 221.719 1185.14 232.839 1179.8 238.72C1172.34 246.927 1162.98 251.543 1152.51 254.38C1136.57 258.698 1120.55 262.54 1104.18 265.04C1093.3 266.702 1082.74 270.086 1072.72 274.697C1069.05 276.389 1066.2 279.967 1061.37 278.689C1057.2 276.17 1057.67 271.653 1057.24 267.629C1056.14 257.112 1055.79 246.487 1054.14 236.066C1052.75 227.319 1049.94 218.797 1047.49 209.079ZM1067.88 264.571C1082.05 258.627 1095.4 253.169 1110.17 252.054C1115.48 251.654 1120.69 249.852 1125.9 248.549C1126.91 248.297 1128.12 247.602 1128.63 246.751C1132.64 239.995 1136.88 233.211 1136.95 225.044C1136.99 221.186 1135.98 217.32 1135.49 213.762C1139.19 209.488 1142.91 208.841 1147.75 211.365C1151.96 213.559 1156.61 215.052 1161.22 216.27C1163.5 216.874 1166.5 219.183 1168.71 215.448C1159.08 202.386 1153.26 187.749 1150.55 171.814C1148.1 157.459 1146.79 143.06 1148.09 128.486C1148.35 125.558 1148.04 122.579 1147.98 118.772C1134.37 122.007 1122.64 127.971 1110.16 131.608C1097.34 135.348 1084.34 138.52 1071.3 141.973C1072.15 145.348 1072.94 147.779 1073.36 150.273C1075.18 161.085 1076.51 171.932 1072.17 182.496C1069.23 189.641 1064.65 195.734 1058.6 200.48C1054.65 203.57 1055.52 206.972 1056.56 210.78C1061.34 228.375 1067.09 245.765 1067.88 264.571ZM1011.88 128.136C1001.18 130.913 993.044 136.738 986.976 146.326C979.24 158.549 978.424 171.196 983.292 184.094C991.427 205.647 1011.9 210.775 1030.71 204.737C1039.65 201.872 1046.12 195.642 1052.73 189.655C1058.97 184.009 1062.43 176.617 1062.86 168.19C1063.38 158.202 1061.39 148.711 1056.7 139.708C1054.2 134.905 1050.7 132.601 1045.48 132.117C1042.73 131.862 1039.71 131.669 1037.34 130.432C1029.1 126.123 1020.65 126.139 1011.88 128.136ZM1141.65 244.252C1154.65 242.266 1165.79 237.809 1175.17 228.086C1165.03 230.1 1156.43 225.91 1147.64 224.132C1145.62 230.91 1143.71 237.316 1141.65 244.252Z" fill="#395659"/>
<path d="M1011.92 128.282C1020.69 126.285 1029.14 126.269 1037.39 130.578C1039.75 131.814 1042.77 132.008 1045.52 132.263C1050.74 132.747 1054.25 135.051 1056.74 139.854C1061.43 148.857 1063.42 158.348 1062.9 168.336C1062.47 176.763 1059.01 184.155 1052.77 189.801C1046.16 195.788 1039.69 202.018 1030.76 204.883C1011.94 210.921 991.467 205.793 983.333 184.24C978.465 171.342 979.281 158.695 987.016 146.472C993.084 136.884 1001.22 131.059 1011.92 128.282ZM991.558 164.015C994.633 165.485 996.356 166.837 998.234 167.101C1002.84 167.749 1006.85 165.183 1011.15 164.107C1022.77 161.2 1034 156.856 1045.87 154.825C1049.52 154.201 1052.63 152.13 1053.49 146.727C1052.5 146.452 1051.37 145.767 1050.35 145.904C1032.26 148.328 1015.03 154.25 997.575 159.22C995.903 159.696 994.614 161.519 991.558 164.015ZM1008.95 185.497C1012.12 184.468 1014.87 183.905 1017.32 182.72C1023.58 179.689 1029.68 176.312 1035.91 173.218C1038.39 171.984 1039.39 170.081 1040.14 167.288C1033.34 165.524 1027.99 168.068 1022.74 170.634C1018.75 172.585 1014.99 175.007 1011.04 177.049C1007.01 179.13 1006.96 179.038 1008.95 185.497Z" fill="#A5CB00"/>
<path d="M1080.93 185.281C1083.28 184.212 1085.87 182.667 1088.68 181.827C1097.72 179.115 1106.84 176.648 1115.95 174.127C1117.29 173.753 1118.71 173.368 1120.09 173.389C1123.73 173.443 1124.83 175.571 1123.93 179.798C1115.8 182.236 1107.9 184.677 1099.96 186.956C1095.35 188.279 1090.66 189.31 1086.02 190.53C1082.14 191.55 1080.86 189.679 1080.93 185.281Z" fill="#395659"/>
<path d="M1113.9 199.932C1115.35 203.384 1114.41 205.297 1111.8 206.822C1104.82 210.905 1097.25 212.546 1089.26 212.394C1085.92 212.33 1083.98 210.122 1084.15 207.02C1084.29 204.501 1086.6 202.849 1090.23 203.611C1094.68 204.545 1098.96 203.668 1102.43 201.602C1106.2 199.354 1109.66 199.234 1113.9 199.932Z" fill="#395659"/>
<path d="M998.184 167.092C994.371 166.512 993.562 161.052 997.056 159.417C997.228 159.336 997.402 159.27 997.581 159.219C1015.04 154.249 1032.26 148.327 1050.36 145.903C1051.38 145.767 1052.51 146.451 1053.49 146.726C1052.64 152.13 1049.53 154.201 1045.88 154.825C1034.01 156.856 1022.78 161.199 1011.15 164.107C1006.85 165.182 1002.85 167.748 998.24 167.101C998.221 167.098 998.202 167.095 998.184 167.092Z" fill="#395659"/>
<path d="M1008.95 185.497C1006.97 179.038 1007.02 179.13 1011.04 177.048C1015 175.007 1018.75 172.585 1022.75 170.634C1028 168.068 1033.34 165.523 1040.14 167.287C1039.4 170.08 1038.4 171.984 1035.91 173.218C1029.68 176.312 1023.59 179.689 1017.33 182.72C1014.88 183.905 1012.13 184.468 1008.95 185.497Z" fill="#395659"/>
<path d="M1161.48 742.643C1163.79 744.725 1166.58 745.957 1163.77 750.233C1162.69 751.885 1164.14 755.991 1165.54 758.315C1172.91 770.513 1181.08 782.14 1192 791.562C1194.84 794.02 1197.86 796.297 1200.55 798.917C1202.04 800.369 1204.08 802.405 1204 804.096C1203.72 810.385 1210.07 812.029 1212.11 816.574C1212.32 817.046 1213.49 817.239 1214.23 817.305C1219.9 817.803 1221.42 819.307 1219.77 824.019C1218.56 827.467 1216.54 830.717 1214.43 833.747C1210.49 839.405 1204.66 843.082 1198.97 846.625C1187.8 853.576 1176.11 859.469 1163.64 864.029C1147.21 870.038 1130.65 875.69 1114.22 881.691C1097.95 887.635 1092.89 882.359 1086.03 871.5C1077.87 858.574 1071.21 844.787 1066.04 830.439C1061.07 816.619 1057.01 802.463 1052.82 788.376C1050.98 782.186 1052 780.463 1058.35 778.578C1069.12 775.384 1080.07 772.794 1090.78 769.453C1108.77 763.845 1126.38 757.261 1143.33 748.905C1148.94 746.136 1155.25 744.745 1161.48 742.643ZM1190.09 803.304C1182.4 795.511 1175.04 788.841 1168.65 781.35C1161.99 773.547 1157.18 764.46 1154.35 754.54C1144.69 758.925 1135.44 763.31 1126.04 767.326C1119.36 770.179 1112.66 773.508 1105.63 774.912C1090.69 777.896 1076.48 784.541 1060.81 783.47C1061.47 794.905 1079.52 842.309 1086.48 851.313C1087.24 851.352 1088.08 851.559 1088.86 851.411C1111.41 847.094 1132.55 838.112 1154.43 831.568C1155.85 831.144 1157.47 829.897 1158.1 828.602C1161.11 822.322 1164.5 816.128 1164.43 808.824C1164.38 804.11 1167.8 801.139 1172.38 801.601C1177.99 802.166 1183.6 802.682 1190.09 803.304ZM1174.33 846.831C1174.19 846.478 1174.04 846.125 1173.89 845.772C1148.07 854.055 1122.24 862.339 1096.41 870.623C1097.31 873.776 1099.43 874.828 1102.1 874.118C1106.76 872.881 1111.38 871.479 1115.89 869.803C1129.04 864.918 1142.15 859.934 1155.21 854.845C1161.65 852.337 1167.96 849.512 1174.33 846.831ZM1173.58 813.339C1173.44 813.589 1172.85 814.437 1172.53 815.377C1172.04 816.828 1171.74 818.344 1171.35 819.884C1178.47 820.672 1188.59 817.915 1194.43 813.339H1173.58ZM1195.02 826.993C1184.12 826.704 1176.6 829.787 1167.53 837.997C1177.83 833.874 1186.43 830.433 1195.02 826.993ZM1089.67 859.012C1090.55 862.461 1092.32 863.527 1094.71 862.712C1099.31 861.143 1103.81 859.266 1108.34 857.517C1108.26 857.209 1108.17 856.9 1108.09 856.592C1102.08 857.382 1096.07 858.171 1089.67 859.012Z" fill="#395659"/>
<path d="M1092.01 795.491C1090.63 791.319 1091.65 789.04 1095.19 787.998C1104.11 785.381 1112.99 782.66 1121.94 780.175C1125.52 779.182 1129.24 778.67 1132.9 778.005C1134.14 777.779 1135.6 777.331 1136.64 777.748C1137.93 778.262 1139.64 779.484 1139.77 780.564C1139.91 781.714 1138.7 783.76 1137.59 784.185C1133.89 785.605 1129.97 786.479 1126.13 787.552C1118.46 789.694 1110.83 791.983 1103.1 793.901C1099.46 794.805 1095.64 794.994 1092.01 795.491Z" fill="#395659"/>
<path d="M1135.09 799.981C1138.02 799.753 1140.04 803.098 1138.16 805.276C1138.04 805.412 1137.91 805.536 1137.78 805.648C1133.21 809.376 1127.39 809.56 1121.8 809.821C1119.44 809.931 1116.77 806.292 1117.52 804.166C1117.9 803.089 1120.29 801.568 1120.99 801.88C1125.31 803.804 1128.81 802.243 1132.65 800.524C1133.37 800.2 1134.18 800.052 1135.09 799.981Z" fill="#395659"/>
</g>
<path d="M263.099 208.465C280.147 212.964 297.512 216.061 315.045 217.9C318.573 218.27 321.603 214.622 321.603 211.345C321.603 207.493 318.583 205.162 315.045 204.791C298.683 203.074 282.491 200.021 266.586 195.824C258.417 193.668 254.932 206.31 263.099 208.465Z" fill="#A5CB00"/>
<path d="M278.199 150.2C289.681 168.922 306.867 183.188 327.148 191.486C330.428 192.828 334.357 190.031 335.216 186.908C336.249 183.151 333.927 180.192 330.635 178.845C323.204 175.804 313.924 170.108 307.681 164.765C300.178 158.344 294.484 151.67 289.525 143.583C287.675 140.568 283.654 139.418 280.552 141.232C277.536 142.994 276.341 147.17 278.199 150.2Z" fill="#A5CB00"/>
<path d="M326.652 143.321C331.906 153.695 337.159 164.069 342.412 174.443C343.964 177.509 348.532 178.633 351.385 176.795C354.518 174.776 355.398 171.105 353.738 167.826C348.485 157.453 343.231 147.078 337.978 136.704C336.426 133.639 331.858 132.515 329.005 134.353C325.872 136.372 324.992 140.042 326.652 143.321Z" fill="#A5CB00"/>
<path d="M1307.57 779.205C1334.99 746.48 1362.96 714.218 1391.48 682.443C1399.44 673.568 1407.45 664.731 1415.5 655.931C1417.1 654.175 1416.51 651.137 1414.74 649.752C1412.75 648.192 1410.17 648.748 1408.56 650.508C1379.74 682.012 1351.46 714.002 1323.74 746.467C1315.99 755.535 1308.29 764.641 1300.63 773.782C1296.98 778.136 1303.93 783.548 1307.57 779.205Z" fill="#A5CB00"/>
<path d="M1302.07 779.66C1306.62 787.122 1313.58 792.996 1321.59 796.449C1323.27 797.17 1325.74 796.726 1326.81 795.117C1350.21 759.781 1378.63 728.167 1407.92 697.662C1416.11 689.134 1424.38 680.681 1432.64 672.229C1433.98 670.861 1433.77 668.272 1432.68 666.85C1427.65 660.312 1422.61 653.773 1417.58 647.235C1414.13 642.748 1407.1 648.065 1410.57 652.57C1415.6 659.108 1420.64 665.647 1425.67 672.185L1425.7 666.806C1396.11 697.065 1366.42 727.425 1340.5 760.959C1333.28 770.29 1326.38 779.86 1319.87 789.694L1325.08 788.362C1318.33 785.456 1312.9 780.583 1309.08 774.325C1307.84 772.295 1304.66 772.154 1302.91 773.489C1300.86 775.052 1300.83 777.622 1302.07 779.66Z" fill="#A5CB00"/>
<path d="M1414.36 655.585C1426.43 645.351 1438.99 635.715 1452 626.711L1445.29 621.464C1439.04 638.118 1432.8 654.772 1426.55 671.426C1425.71 673.652 1426.59 676.239 1428.85 677.212C1430.95 678.121 1433.8 677.147 1434.64 674.913C1440.89 658.259 1447.13 641.605 1453.38 624.951C1454.94 620.791 1450.34 617.162 1446.67 619.705C1433.65 628.709 1421.09 638.345 1409.02 648.579C1407.21 650.116 1406.69 652.788 1408.18 654.75C1409.57 656.567 1412.53 657.13 1414.36 655.585Z" fill="#A5CB00"/>
<path d="M1431.93 638.233L1434.66 647.133C1435.2 648.892 1437.5 650.123 1439.27 649.825C1440.04 649.696 1440.76 649.406 1441.4 648.959C1442.19 648.415 1443.07 647.085 1443.09 646.101C1443.22 641.108 1443.35 636.115 1443.47 631.121C1443.5 629.891 1443.4 628.828 1442.62 627.808C1441.98 626.967 1440.83 626.23 1439.76 626.12C1438.61 626.002 1437.36 626.211 1436.44 626.973C1435.63 627.655 1434.78 628.714 1434.76 629.83C1434.63 634.823 1434.5 639.817 1434.38 644.81L1442.81 643.778L1440.08 634.878C1439.78 633.88 1438.68 632.912 1437.75 632.513C1436.75 632.079 1435.34 632.016 1434.33 632.484C1433.31 632.956 1432.37 633.736 1431.96 634.812C1431.52 635.976 1431.57 637.044 1431.93 638.233Z" fill="#A5CB00"/>
<path d="M1319.93 760.099C1322.97 765.06 1327.23 769.388 1332.15 772.502C1333.16 773.145 1334.16 773.554 1335.4 773.403C1336.47 773.272 1337.69 772.639 1338.33 771.745C1339 770.818 1339.43 769.656 1339.23 768.498C1339.05 767.413 1338.55 766.18 1337.58 765.565C1335.29 764.116 1333.18 762.418 1331.27 760.501L1332.06 761.301C1330.11 759.322 1328.39 757.134 1326.94 754.764C1326.4 753.878 1325.07 753.221 1324.08 753.075C1323 752.916 1321.62 753.216 1320.77 753.928C1319.91 754.644 1319.19 755.64 1319.08 756.786C1318.95 758.03 1319.28 759.037 1319.93 760.099Z" fill="#A5CB00"/>
<path d="M1329.87 744.202C1332.6 750.437 1337.38 755.426 1343.38 758.588C1344.35 759.096 1345.83 759.017 1346.8 758.616C1347.78 758.212 1348.79 757.294 1349.17 756.288C1350.08 753.913 1349.05 751.65 1346.87 750.501C1346.5 750.306 1346.14 750.103 1345.77 749.892L1346.74 750.467C1344.94 749.393 1343.29 748.104 1341.8 746.623L1342.59 747.424C1341.07 745.88 1339.75 744.162 1338.67 742.286L1339.23 743.276C1338.78 742.487 1338.38 741.678 1338.01 740.847C1337.09 738.739 1334.45 737.436 1332.26 738.453C1330.14 739.44 1328.88 741.942 1329.87 744.202Z" fill="#A5CB00"/>
<path d="M1339.66 734.546C1341.37 736.68 1343.31 738.667 1345.4 740.443C1347.49 742.232 1349.79 743.728 1352.18 745.091C1353.11 745.621 1354.66 745.507 1355.6 745.12C1356.58 744.716 1357.59 743.798 1357.97 742.792C1358.38 741.712 1358.5 740.45 1358 739.371L1357.43 738.381C1356.96 737.772 1356.38 737.313 1355.67 737.005C1355.47 736.888 1355.26 736.769 1355.06 736.649L1356.02 737.223C1353.27 735.583 1350.74 733.604 1348.48 731.33L1349.27 732.131C1348.35 731.201 1347.49 730.228 1346.67 729.211C1345.96 728.334 1344.93 727.689 1343.81 727.523C1342.73 727.363 1341.35 727.663 1340.49 728.375C1339.63 729.091 1338.92 730.087 1338.8 731.233C1338.69 732.395 1338.91 733.612 1339.66 734.546Z" fill="#A5CB00"/>
<path d="M1652.88 187.74C1630.68 188.673 1609.21 197.945 1593.25 213.413C1585.14 221.271 1577.38 231.289 1574.65 242.432C1571.95 253.404 1574.95 265.912 1584.72 272.444C1594.72 279.134 1609.73 274.622 1613.52 263.041C1614.53 259.955 1612.31 257.352 1609.67 256.255C1602.07 253.106 1593.96 257.348 1588.5 262.596C1583.53 267.381 1579.61 273.658 1576.62 279.839C1570.49 292.495 1567.61 306.765 1568.68 320.809C1569.29 328.849 1571.03 336.749 1574.12 344.204C1575.26 346.954 1577.78 348.916 1580.91 348.057C1583.51 347.343 1585.91 344.04 1584.76 341.271C1575.68 319.364 1578.56 293.749 1592.71 274.509C1594.51 272.057 1596.67 269.672 1599.25 268.023C1602.03 266.249 1603.99 265.758 1606.73 266.894L1602.88 260.108C1602.34 261.756 1603.16 259.701 1602.7 260.587C1602.5 260.991 1602.27 261.387 1602 261.756C1602.47 261.101 1601.94 261.801 1601.84 261.904C1601.53 262.233 1601.2 262.552 1600.85 262.838C1600.11 263.445 1601.86 262.271 1600.42 263.105C1600.1 263.291 1599.78 263.478 1599.45 263.649C1598.48 264.154 1599 263.861 1599.24 263.769C1598.62 264.01 1597.98 264.16 1597.35 264.335C1597.13 264.395 1595.94 264.573 1596.86 264.463C1596.49 264.508 1596.1 264.525 1595.73 264.535C1595.35 264.544 1594.97 264.536 1594.59 264.521C1592.88 264.454 1595.48 264.79 1593.81 264.432C1591.87 264.014 1591.25 263.724 1589.84 262.595C1587.13 260.434 1585.62 257.198 1584.9 253.531C1584.23 250.117 1585.02 245.467 1586.42 241.705C1589.48 233.469 1595.76 226.167 1602.09 220.23C1608.61 214.118 1616.17 209.212 1624.3 205.522C1633.3 201.444 1643.15 199.182 1652.88 198.773C1655.86 198.648 1658.4 196.327 1658.4 193.256C1658.4 190.365 1655.88 187.614 1652.88 187.74Z" fill="#A5CB00"/>
<path d="M1624.42 285.036C1612.87 290.372 1605.69 302.463 1604.64 314.885C1604.38 318.003 1604.64 321.158 1605.24 324.224C1605.87 327.456 1607.79 330.326 1608.38 333.51C1608.84 336.011 1607.53 338.659 1607.05 341.413C1606.32 345.625 1606.94 349.073 1609.66 352.447C1611.53 354.768 1615.52 354.395 1617.47 352.447C1619.76 350.153 1619.35 346.972 1617.47 344.645C1617.68 344.914 1617.71 344.993 1617.75 345.331C1617.75 345.357 1617.77 343.563 1617.69 344.346C1617.84 342.914 1618.35 341.47 1618.69 340.078C1619.49 336.785 1619.86 333.494 1618.91 330.186C1618.09 327.352 1616.65 324.791 1616.01 321.887C1615.58 319.933 1615.47 318.023 1615.63 315.493C1615.63 315.531 1615.79 313.748 1615.69 314.533C1615.77 313.93 1615.89 313.323 1616.01 312.728C1616.25 311.529 1616.57 310.344 1616.96 309.182C1617.6 307.239 1618.47 305.417 1619.8 303.322C1622.25 299.482 1625.56 296.609 1629.99 294.563C1632.7 293.313 1633.37 289.41 1631.97 287.015C1630.35 284.24 1627.14 283.781 1624.42 285.036Z" fill="#A5CB00"/>
<path d="M1484.86 323.619C1468.77 343.23 1468.69 372.432 1484.59 392.17C1486.46 394.493 1490.45 394.118 1492.4 392.17C1494.69 389.875 1494.27 386.697 1492.4 384.369C1480.57 369.694 1480.7 346 1492.67 331.421C1494.55 329.119 1494.92 325.872 1492.67 323.619C1490.72 321.672 1486.76 321.304 1484.86 323.619Z" fill="#A5CB00"/>
<path d="M1451.44 379.11C1449.71 395.444 1460.97 411.546 1476.43 416.461C1479.18 417.336 1482.58 415.435 1483.22 412.608C1483.91 409.597 1482.31 406.759 1479.36 405.822C1478.93 405.684 1478.5 405.542 1478.07 405.386C1477.93 405.336 1476.76 404.858 1477.46 405.161C1478.17 405.463 1477.01 404.944 1476.88 404.881C1476.47 404.683 1476.07 404.476 1475.67 404.26C1475.01 403.9 1474.36 403.512 1473.73 403.1C1473.35 402.852 1472.98 402.59 1472.61 402.333C1471.75 401.745 1472.96 402.655 1472.46 402.235C1471.24 401.205 1470.07 400.157 1468.99 398.978C1468.68 398.643 1468.38 398.301 1468.09 397.953C1468 397.845 1467.22 396.855 1467.67 397.446C1468.12 398.036 1467.37 397.022 1467.28 396.907C1467.02 396.534 1466.77 396.157 1466.52 395.774C1465.65 394.425 1464.96 393.01 1464.24 391.58C1463.95 390.988 1464.55 392.418 1464.18 391.432C1464.02 391.006 1463.86 390.583 1463.71 390.153C1463.47 389.438 1463.25 388.714 1463.06 387.982C1462.85 387.178 1462.67 386.367 1462.53 385.548C1462.43 384.944 1462.42 384.684 1462.5 385.447C1462.46 384.996 1462.4 384.548 1462.37 384.095C1462.26 382.431 1462.3 380.768 1462.48 379.11C1462.79 376.23 1459.72 373.469 1456.96 373.593C1453.71 373.739 1451.77 376.025 1451.44 379.11Z" fill="#A5CB00"/>
<path d="M319.218 736.343C286.265 739.53 250.912 744.46 225.4 767.581C214.385 777.565 205.533 790.766 202.06 805.334C198.487 820.322 200.397 837.274 210.685 849.287C221.897 862.381 243.724 863.492 254.113 848.881C255.639 846.735 255.182 842.634 253.088 840.938C236.54 827.531 214.854 832.969 197.099 840.889C179.102 848.916 159.471 860.74 155.042 881.544C152.927 891.477 154.552 902.233 161.587 909.905C167.248 916.078 176.24 919.705 184.599 918.826C189.28 918.334 193.591 916.648 197.175 913.553C202.248 909.172 202.782 901.407 196.645 897.647C192.813 895.3 187.427 894.923 183.04 895.047C178.523 895.174 173.946 896.029 169.722 897.642C149.901 905.209 136.145 925.081 139.25 946.497C139.759 950.004 144.208 951.929 147.318 951.075C151.083 950.041 152.408 946.53 151.898 943.012C151.153 937.874 152.577 931.471 155.274 926.497C158.276 920.958 162.529 916.401 167.753 913.132C173.175 909.74 178.752 907.975 184.897 908.155C186.622 908.206 186.911 908.216 188.366 908.509C189.268 908.692 189.706 908.821 189.736 908.806L190.025 908.967L188.953 903.308C188.625 903.412 188.191 904.057 187.9 904.283C188.658 903.696 187.013 904.763 186.781 904.892C186.502 905.046 186.209 905.199 185.915 905.322C186.052 905.265 186.692 905.019 185.986 905.243C185.27 905.47 184.55 905.659 183.812 905.805C184.87 905.596 183.037 905.851 182.66 905.859C181.896 905.876 181.13 905.848 180.37 905.772C181.385 905.874 179.802 905.651 179.497 905.582C178.733 905.409 177.986 905.184 177.242 904.94C176.923 904.836 176.602 904.723 176.292 904.596C176.938 904.862 176.255 904.563 176.006 904.436C174.934 903.889 173.187 902.823 172.677 902.408C172.306 902.107 170.374 900.126 170.096 899.739C166.68 894.981 166.629 888.096 168.425 882.208C172.871 867.624 187.723 859.722 200.657 853.619C207.923 850.19 215.989 847.114 223.867 846.076C230.865 845.154 238.311 845.75 243.813 850.207L242.788 842.264C243.089 841.84 240.754 844.265 241.25 843.886C240.704 844.303 240.093 844.66 239.491 844.989C239.529 844.968 237.51 845.856 238.52 845.472C235.722 846.537 234.293 846.667 231.155 846.422C227.365 846.127 222.71 843.541 219.74 839.787C212.466 830.593 212.267 817.513 215.206 806.88C222.162 781.711 245.57 765.437 269.702 758.024C285.783 753.084 302.53 751.066 319.218 749.453C322.743 749.112 325.776 746.684 325.776 742.898C325.776 739.617 322.764 736 319.218 736.343Z" fill="#A5CB00"/>
</g>
<defs>
<clipPath id="clip0_215_3">
<rect width="1920" height="1080" fill="white"/>
</clipPath>
</defs>
</svg>
